<?xml version="1.0" encoding="UTF-8" standalone="no"?><svg xmlns="http://www.w3.org/2000/svg" xmlns:xlink="http://www.w3.org/1999/xlink" contentScriptType="application/ecmascript" contentStyleType="text/css" height="369px" preserveAspectRatio="none" style="width:423px;height:369px;background:#FFFFFF;" version="1.1" viewBox="0 0 423 369" width="423px" zoomAndPan="magnify"><defs><filter height="300%" id="f1csroagtejhd6" width="300%" x="-1" y="-1"><feGaussianBlur result="blurOut" stdDeviation="2.0"/><feColorMatrix in="blurOut" result="blurOut2" type="matrix" values="0 0 0 0 0 0 0 0 0 0 0 0 0 0 0 0 0 0 .4 0"/><feOffset dx="4.0" dy="4.0" in="blurOut2" result="blurOut3"/><feBlend in="SourceGraphic" in2="blurOut3" mode="normal"/></filter></defs><g><text fill="#000000" font-family="sans-serif" font-size="18" lengthAdjust="spacing" textLength="414" x="2" y="16.708">Modelamiento Empresa - Empleado - Directivo</text><!--MD5=[7d0e5ddd73bd8fec86b8967827845935]
class Empresa--><rect codeLine="2" fill="#FEFECE" filter="url(#f1csroagtejhd6)" height="73.6094" id="Empresa" style="stroke:#A80036;stroke-width:1.5;" width="87" x="101.25" y="33.9531"/><ellipse cx="116.25" cy="49.9531" fill="#ADD1B2" rx="11" ry="11" style="stroke:#A80036;stroke-width:1.0;"/><path d="M119.2188,55.5938 Q118.6406,55.8906 118,56.0313 Q117.3594,56.1875 116.6563,56.1875 Q114.1563,56.1875 112.8281,54.5469 Q111.5156,52.8906 111.5156,49.7656 Q111.5156,46.6406 112.8281,44.9844 Q114.1563,43.3281 116.6563,43.3281 Q117.3594,43.3281 118,43.4844 Q118.6563,43.6406 119.2188,43.9375 L119.2188,46.6563 Q118.5938,46.0781 118,45.8125 Q117.4063,45.5313 116.7813,45.5313 Q115.4375,45.5313 114.75,46.6094 Q114.0625,47.6719 114.0625,49.7656 Q114.0625,51.8594 114.75,52.9375 Q115.4375,54 116.7813,54 Q117.4063,54 118,53.7344 Q118.5938,53.4531 119.2188,52.875 L119.2188,55.5938 Z " fill="#000000"/><text fill="#000000" font-family="sans-serif" font-size="12" lengthAdjust="spacing" textLength="55" x="130.25" y="54.1074">Empresa</text><line style="stroke:#A80036;stroke-width:1.5;" x1="102.25" x2="187.25" y1="65.9531" y2="65.9531"/><rect fill="none" height="6" style="stroke:#C82930;stroke-width:1.0;" width="6" x="109.25" y="73.9531"/><text fill="#000000" font-family="sans-serif" font-size="11" lengthAdjust="spacing" textLength="14" x="121.25" y="80.1636">nit</text><rect fill="none" height="6" style="stroke:#C82930;stroke-width:1.0;" width="6" x="109.25" y="86.7578"/><text fill="#000000" font-family="sans-serif" font-size="11" lengthAdjust="spacing" textLength="46" x="121.25" y="92.9683">telefono</text><line style="stroke:#A80036;stroke-width:1.5;" x1="102.25" x2="187.25" y1="99.5625" y2="99.5625"/><!--MD5=[8f63dadf5c643e74a34e53c8f0a15d23]
class Persona--><rect codeLine="7" fill="#FEFECE" filter="url(#f1csroagtejhd6)" height="86.4141" id="Persona" style="stroke:#A80036;stroke-width:1.5;" width="113" x="227.25" y="27.9531"/><ellipse cx="255.3" cy="43.9531" fill="#A9DCDF" rx="11" ry="11" style="stroke:#A80036;stroke-width:1.0;"/><path d="M255.4094,39.2969 L254.2531,44.375 L256.5813,44.375 L255.4094,39.2969 Z M253.925,37.0625 L256.9094,37.0625 L260.2688,49.4531 L257.8156,49.4531 L257.05,46.3906 L253.7688,46.3906 L253.0188,49.4531 L250.5813,49.4531 L253.925,37.0625 Z " fill="#000000"/><text fill="#000000" font-family="sans-serif" font-size="12" font-style="italic" lengthAdjust="spacing" textLength="52" x="272.2" y="48.1074">Persona</text><line style="stroke:#A80036;stroke-width:1.5;" x1="228.25" x2="339.25" y1="59.9531" y2="59.9531"/><rect fill="none" height="6" style="stroke:#C82930;stroke-width:1.0;" width="6" x="235.25" y="67.9531"/><text fill="#000000" font-family="sans-serif" font-size="11" lengthAdjust="spacing" textLength="44" x="247.25" y="74.1636">nombre</text><rect fill="none" height="6" style="stroke:#C82930;stroke-width:1.0;" width="6" x="235.25" y="80.7578"/><text fill="#000000" font-family="sans-serif" font-size="11" lengthAdjust="spacing" textLength="28" x="247.25" y="86.9683">edad</text><line style="stroke:#A80036;stroke-width:1.5;" x1="228.25" x2="339.25" y1="93.5625" y2="93.5625"/><ellipse cx="238.25" cy="104.5625" fill="#84BE84" rx="3" ry="3" style="stroke:#038048;stroke-width:1.0;"/><text fill="#000000" font-family="sans-serif" font-size="11" lengthAdjust="spacing" textLength="87" x="247.25" y="107.7729">mostrarDatos()</text><!--MD5=[267282629f1778b9c75091f9d8fe6097]
class Empleado--><rect codeLine="13" fill="#FEFECE" filter="url(#f1csroagtejhd6)" height="60.8047" id="Empleado" style="stroke:#A80036;stroke-width:1.5;" width="95" x="241.25" y="173.9531"/><ellipse cx="256.7" cy="189.9531" fill="#ADD1B2" rx="11" ry="11" style="stroke:#A80036;stroke-width:1.0;"/><path d="M259.6688,195.5938 Q259.0906,195.8906 258.45,196.0313 Q257.8094,196.1875 257.1063,196.1875 Q254.6063,196.1875 253.2781,194.5469 Q251.9656,192.8906 251.9656,189.7656 Q251.9656,186.6406 253.2781,184.9844 Q254.6063,183.3281 257.1063,183.3281 Q257.8094,183.3281 258.45,183.4844 Q259.1063,183.6406 259.6688,183.9375 L259.6688,186.6563 Q259.0438,186.0781 258.45,185.8125 Q257.8563,185.5313 257.2313,185.5313 Q255.8875,185.5313 255.2,186.6094 Q254.5125,187.6719 254.5125,189.7656 Q254.5125,191.8594 255.2,192.9375 Q255.8875,194 257.2313,194 Q257.8563,194 258.45,193.7344 Q259.0438,193.4531 259.6688,192.875 L259.6688,195.5938 Z " fill="#000000"/><text fill="#000000" font-family="sans-serif" font-size="12" lengthAdjust="spacing" textLength="62" x="270.8" y="194.1074">Empleado</text><line style="stroke:#A80036;stroke-width:1.5;" x1="242.25" x2="335.25" y1="205.9531" y2="205.9531"/><rect fill="none" height="6" style="stroke:#C82930;stroke-width:1.0;" width="6" x="249.25" y="213.9531"/><text fill="#000000" font-family="sans-serif" font-size="11" lengthAdjust="spacing" textLength="69" x="261.25" y="220.1636">sueldoBruto</text><line style="stroke:#A80036;stroke-width:1.5;" x1="242.25" x2="335.25" y1="226.7578" y2="226.7578"/><!--MD5=[20a748d5ee336a9a91751b0a3d4f0beb]
class Cliente--><rect codeLine="17" fill="#FEFECE" filter="url(#f1csroagtejhd6)" height="60.8047" id="Cliente" style="stroke:#A80036;stroke-width:1.5;" width="122" x="83.75" y="173.9531"/><ellipse cx="119.9" cy="189.9531" fill="#ADD1B2" rx="11" ry="11" style="stroke:#A80036;stroke-width:1.0;"/><path d="M122.8688,195.5938 Q122.2906,195.8906 121.65,196.0313 Q121.0094,196.1875 120.3063,196.1875 Q117.8063,196.1875 116.4781,194.5469 Q115.1656,192.8906 115.1656,189.7656 Q115.1656,186.6406 116.4781,184.9844 Q117.8063,183.3281 120.3063,183.3281 Q121.0094,183.3281 121.65,183.4844 Q122.3063,183.6406 122.8688,183.9375 L122.8688,186.6563 Q122.2438,186.0781 121.65,185.8125 Q121.0563,185.5313 120.4313,185.5313 Q119.0875,185.5313 118.4,186.6094 Q117.7125,187.6719 117.7125,189.7656 Q117.7125,191.8594 118.4,192.9375 Q119.0875,194 120.4313,194 Q121.0563,194 121.65,193.7344 Q122.2438,193.4531 122.8688,192.875 L122.8688,195.5938 Z " fill="#000000"/><text fill="#000000" font-family="sans-serif" font-size="12" lengthAdjust="spacing" textLength="43" x="138.6" y="194.1074">Cliente</text><line style="stroke:#A80036;stroke-width:1.5;" x1="84.75" x2="204.75" y1="205.9531" y2="205.9531"/><rect fill="none" height="6" style="stroke:#C82930;stroke-width:1.0;" width="6" x="91.75" y="213.9531"/><text fill="#000000" font-family="sans-serif" font-size="11" lengthAdjust="spacing" textLength="96" x="103.75" y="220.1636">telefonoContacto</text><line style="stroke:#A80036;stroke-width:1.5;" x1="84.75" x2="204.75" y1="226.7578" y2="226.7578"/><!--MD5=[5c8cc33530f1ef600411414eeda85bc6]
class Directivo--><rect codeLine="21" fill="#FEFECE" filter="url(#f1csroagtejhd6)" height="60.8047" id="Directivo" style="stroke:#A80036;stroke-width:1.5;" width="86" x="245.75" y="294.9531"/><ellipse cx="260.75" cy="310.9531" fill="#ADD1B2" rx="11" ry="11" style="stroke:#A80036;stroke-width:1.0;"/><path d="M263.7188,316.5938 Q263.1406,316.8906 262.5,317.0313 Q261.8594,317.1875 261.1563,317.1875 Q258.6563,317.1875 257.3281,315.5469 Q256.0156,313.8906 256.0156,310.7656 Q256.0156,307.6406 257.3281,305.9844 Q258.6563,304.3281 261.1563,304.3281 Q261.8594,304.3281 262.5,304.4844 Q263.1563,304.6406 263.7188,304.9375 L263.7188,307.6563 Q263.0938,307.0781 262.5,306.8125 Q261.9063,306.5313 261.2813,306.5313 Q259.9375,306.5313 259.25,307.6094 Q258.5625,308.6719 258.5625,310.7656 Q258.5625,312.8594 259.25,313.9375 Q259.9375,315 261.2813,315 Q261.9063,315 262.5,314.7344 Q263.0938,314.4531 263.7188,313.875 L263.7188,316.5938 Z " fill="#000000"/><text fill="#000000" font-family="sans-serif" font-size="12" lengthAdjust="spacing" textLength="54" x="274.75" y="315.1074">Directivo</text><line style="stroke:#A80036;stroke-width:1.5;" x1="246.75" x2="330.75" y1="326.9531" y2="326.9531"/><rect fill="none" height="6" style="stroke:#C82930;stroke-width:1.0;" width="6" x="253.75" y="334.9531"/><text fill="#000000" font-family="sans-serif" font-size="11" lengthAdjust="spacing" textLength="53" x="265.75" y="341.1636">categoria</text><line style="stroke:#A80036;stroke-width:1.5;" x1="246.75" x2="330.75" y1="347.7578" y2="347.7578"/><!--MD5=[68f8671c22b093c876158e7861fe58a8]
reverse link Persona to Empleado--><path d="M286.1304,134.5088 C286.6398,148.1098 287.1558,161.8881 287.5936,173.5779 " fill="none" id="Persona-backto-Empleado" style="stroke:#A80036;stroke-width:1.0;"/><polygon fill="none" points="279.1269,134.5447,285.3734,114.2967,293.1171,134.0207,279.1269,134.5447" style="stroke:#A80036;stroke-width:1.0;"/><!--MD5=[f6363b382a30d0da343356c1175a23bd]
reverse link Persona to Cliente--><path d="M224.052,128.2889 C207.8535,143.8465 190.9302,160.1002 176.8972,173.5779 " fill="none" id="Persona-backto-Cliente" style="stroke:#A80036;stroke-width:1.0;"/><polygon fill="none" points="219.3472,123.102,238.6207,114.2967,229.0449,133.1993,219.3472,123.102" style="stroke:#A80036;stroke-width:1.0;"/><!--MD5=[11e919b34cf84ec816f9939623d82956]
reverse link Empleado to Directivo--><path d="M262.8027,255.2458 C261.9547,268.7388 262.8885,282.8932 265.604,294.9295 " fill="none" id="Empleado-backto-Directivo" style="stroke:#A80036;stroke-width:1.0;"/><polygon fill="none" points="255.9303,253.8402,265.6018,234.9865,269.7986,255.7564,255.9303,253.8402" style="stroke:#A80036;stroke-width:1.0;"/><!--MD5=[011cb4b457d8e121d4f2581476ac4a19]
reverse link Directivo to Empleado--><path codeLine="25" d="M288.75,281.8203 C288.75,266.3015 288.75,249.1734 288.75,234.9865 " fill="none" id="Directivo-backto-Empleado" style="stroke:#A80036;stroke-width:1.0;"/><polygon fill="#A80036" points="288.75,294.9295,292.75,288.9295,288.75,282.9295,284.75,288.9295,288.75,294.9295" style="stroke:#A80036;stroke-width:1.0;"/><!--MD5=[178d01aadb8dc95b736fa17e9f8ec4b8]
link Directivo to Empleado--><path codeLine="27" d="M311.896,294.9295 C316.0339,276.5885 316.0347,253.3292 311.8982,234.9865 " fill="none" id="Directivo-Empleado" style="stroke:#A80036;stroke-width:1.0;"/><text fill="#000000" font-family="sans-serif" font-size="13" lengthAdjust="spacing" textLength="8" x="308.0842" y="283.7146">1</text><text fill="#000000" font-family="sans-serif" font-size="13" lengthAdjust="spacing" textLength="32" x="281.3725" y="254.9316">1..10</text><!--MD5=[73d13ef49871872d94990167e5d94568]
reverse link Empresa to Cliente--><path codeLine="26" d="M144.75,121.238 C144.75,138.9005 144.75,158.2035 144.75,173.7679 " fill="none" id="Empresa-backto-Cliente" style="stroke:#A80036;stroke-width:1.0;"/><polygon fill="#FFFFFF" points="144.75,108.1403,140.75,114.1403,144.75,120.1403,148.75,114.1403,144.75,108.1403" style="stroke:#A80036;stroke-width:1.0;"/><!--MD5=[3d3c00e0d17f2a4d010e333d8333d5ae]
@startuml
title Modelamiento Empresa - Empleado - Directivo
class Empresa {
  - nit
  - telefono
}

abstract class Persona {
  - nombre
  - edad
  + mostrarDatos()
}

class Empleado extends Persona {
  - sueldoBruto
}

class Cliente extends Persona {
  - telefonoContacto
}

class Directivo extends Empleado {
  - categoria 
}

Directivo *- - Empleado
Empresa o- - Cliente
Directivo "1" - - "1..10" Empleado
@enduml

PlantUML version 1.2021.7(Sun May 23 12:40:07 UTC 2021)
(GPL source distribution)
Java Runtime: OpenJDK Runtime Environment
JVM: OpenJDK 64-Bit Server VM
Default Encoding: UTF-8
Language: en
Country: US
--></g></svg>